<svg width="151" height="23" viewBox="0 0 151 23" fill="none" xmlns="http://www.w3.org/2000/svg">
<path d="M10.0343 13.904L9.08119 14.2066L9.08896 14.2311L9.09798 14.2551L10.0343 13.904ZM9.55431 12.392L10.5074 12.0894L10.5053 12.0826L10.503 12.0758L9.55431 12.392ZM5.87031 12.392L4.92163 12.0758L4.91936 12.0826L4.91719 12.0894L5.87031 12.392ZM5.39031 13.904L6.32664 14.2551L6.33566 14.2311L6.34344 14.2066L5.39031 13.904ZM4.50231 13.868L3.55115 13.5593L3.54381 13.5819L3.53755 13.6049L4.50231 13.868ZM7.15431 5.696L6.21798 5.34487L6.21009 5.36593L6.20315 5.38732L7.15431 5.696ZM8.25831 5.696L9.20907 5.38606L9.20231 5.36531L9.19464 5.34488L8.25831 5.696ZM10.9223 13.868L11.8925 13.6255L11.8839 13.5914L11.8731 13.5581L10.9223 13.868ZM10.9343 13.916H11.9343V13.7929L11.9045 13.6735L10.9343 13.916ZM6.11031 11.6L7.00474 12.0472L7.03951 11.9777L7.06312 11.9036L6.11031 11.6ZM6.11031 11.648L5.21588 12.0952L5.36495 12.3934L5.6631 12.5424L6.11031 11.648ZM9.29031 11.648L9.99741 12.3551L9.99743 12.3551L9.29031 11.648ZM9.30231 11.6L8.34951 11.9036L8.37311 11.9777L8.40788 12.0472L9.30231 11.6ZM7.74231 6.704L8.69512 6.40041L8.67151 6.32632L8.63673 6.25678L7.74231 6.704ZM7.67031 6.704L6.77589 6.25678L6.74112 6.32632L6.71751 6.40041L7.67031 6.704ZM10.1783 13C10.2907 13 10.4662 13.0261 10.643 13.1439C10.824 13.2646 10.923 13.4258 10.9706 13.5529L9.09798 14.2551C9.16963 14.4462 9.30467 14.6554 9.53361 14.8081C9.75845 14.9579 9.99397 15 10.1783 15V13ZM10.9874 13.6014L10.5074 12.0894L8.60119 12.6946L9.08119 14.2066L10.9874 13.6014ZM10.503 12.0758C10.4517 11.922 10.3455 11.7219 10.1363 11.565C9.92271 11.4048 9.69018 11.356 9.50631 11.356V13.356C9.34645 13.356 9.13392 13.3132 8.93631 13.165C8.74317 13.0201 8.64888 12.838 8.60563 12.7082L10.503 12.0758ZM9.50631 11.356H5.91831V13.356H9.50631V11.356ZM5.91831 11.356C5.73445 11.356 5.50192 11.4048 5.28831 11.565C5.07917 11.7219 4.97288 11.922 4.92163 12.0758L6.819 12.7082C6.77575 12.838 6.68145 13.0201 6.48831 13.165C6.29071 13.3132 6.07818 13.356 5.91831 13.356V11.356ZM4.91719 12.0894L4.43719 13.6014L6.34344 14.2066L6.82344 12.6946L4.91719 12.0894ZM4.45398 13.5529C4.50163 13.4258 4.60067 13.2646 4.78161 13.1439C4.95845 13.0261 5.13397 13 5.24631 13V15C5.43065 15 5.66617 14.9579 5.89101 14.8081C6.11996 14.6554 6.25499 14.4462 6.32664 14.2551L4.45398 13.5529ZM5.24631 13H4.59831V15H5.24631V13ZM4.59831 13C4.67482 13 5.05224 13.0147 5.31705 13.3788C5.5711 13.7281 5.48214 14.0759 5.46708 14.1311L3.53755 13.6049C3.49848 13.7481 3.41352 14.1618 3.69958 14.5552C3.99638 14.9633 4.43381 15 4.59831 15V13ZM5.45348 14.1767L8.10548 6.00468L6.20315 5.38732L3.55115 13.5593L5.45348 14.1767ZM8.09064 6.04712C8.04299 6.17419 7.94396 6.33542 7.76301 6.45605C7.58617 6.57394 7.41065 6.6 7.29831 6.6V4.6C7.11397 4.6 6.87845 4.64206 6.65361 4.79195C6.42467 4.94458 6.28963 5.15381 6.21798 5.34487L8.09064 6.04712ZM7.29831 6.6H8.11431V4.6H7.29831V6.6ZM8.11431 6.6C8.00197 6.6 7.82645 6.57394 7.64961 6.45605C7.46867 6.33542 7.36963 6.17419 7.32198 6.04712L9.19464 5.34488C9.12299 5.15381 8.98796 4.94458 8.75901 4.79195C8.53417 4.64206 8.29865 4.6 8.11431 4.6V6.6ZM7.30756 6.00594L9.97156 14.1779L11.8731 13.5581L9.20907 5.38606L7.30756 6.00594ZM9.95217 14.1105L9.96417 14.1585L11.9045 13.6735L11.8925 13.6255L9.95217 14.1105ZM9.93431 13.916C9.93431 13.7134 10.0122 13.4083 10.2934 13.1896C10.5268 13.0081 10.7603 13 10.8263 13V15C10.9643 15 11.2519 14.9779 11.5213 14.7684C11.8384 14.5217 11.9343 14.1746 11.9343 13.916H9.93431ZM10.8263 13H10.1783V15H10.8263V13ZM5.21588 11.1528C5.06712 11.4503 5.06712 11.7977 5.21588 12.0952L7.00474 11.2008C7.06188 11.3151 7.10431 11.4592 7.10431 11.624C7.10431 11.7888 7.06188 11.9329 7.00474 12.0472L5.21588 11.1528ZM5.6631 12.5424C5.80139 12.6116 5.96955 12.66 6.15831 12.66V10.66C6.31508 10.66 6.45124 10.7004 6.55753 10.7536L5.6631 12.5424ZM6.15831 12.66H9.25431V10.66H6.15831V12.66ZM9.25431 12.66C9.42446 12.66 9.73574 12.6168 9.99741 12.3551L8.58321 10.9409C8.82889 10.6952 9.11617 10.66 9.25431 10.66V12.66ZM9.99743 12.3551C10.0878 12.2647 10.2161 12.104 10.2755 11.8665C10.3404 11.6067 10.2978 11.3548 10.1967 11.1528L8.40788 12.0472C8.31487 11.8612 8.2742 11.6253 8.33517 11.3815C8.39055 11.16 8.50883 11.0153 8.5832 10.9409L9.99743 12.3551ZM10.2551 11.2964L8.69512 6.40041L6.78951 7.00759L8.34951 11.9036L10.2551 11.2964ZM8.63673 6.25678C8.57342 6.13015 8.46374 5.9751 8.28201 5.85394C8.09401 5.72862 7.88929 5.68 7.70631 5.68V7.68C7.53933 7.68 7.34861 7.63538 7.17262 7.51806C7.00289 7.4049 6.90321 7.26185 6.84789 7.15122L8.63673 6.25678ZM7.70631 5.68C7.52333 5.68 7.31861 5.72862 7.13062 5.85395C6.94888 5.9751 6.83921 6.13015 6.77589 6.25678L8.56473 7.15122C8.50942 7.26185 8.40974 7.4049 8.24001 7.51805C8.06402 7.63538 7.8733 7.68 7.70631 7.68V5.68ZM6.71751 6.40041L5.15751 11.2964L7.06312 11.9036L8.62312 7.00759L6.71751 6.40041ZM11.795 9.64C11.9092 9.64 12.1785 9.66921 12.4121 9.90289C12.6458 10.1366 12.675 10.4059 12.675 10.52H10.675C10.675 10.7141 10.7242 11.0434 10.9979 11.3171C11.2716 11.5908 11.6009 11.64 11.795 11.64V9.64ZM12.675 10.52V10.016H10.675V10.52H12.675ZM12.675 10.016C12.675 10.1301 12.6458 10.3994 12.4121 10.6331C12.1785 10.8668 11.9092 10.896 11.795 10.896V8.896C11.6009 8.896 11.2716 8.94521 10.9979 9.21889C10.7242 9.49257 10.675 9.82185 10.675 10.016H12.675ZM11.795 10.896H15.347V8.896H11.795V10.896ZM15.347 10.896C15.2329 10.896 14.9636 10.8668 14.7299 10.6331C14.4962 10.3994 14.467 10.1301 14.467 10.016H16.467C16.467 9.82186 16.4178 9.49257 16.1441 9.21889C15.8705 8.94521 15.5412 8.896 15.347 8.896V10.896ZM14.467 10.016V10.52H16.467V10.016H14.467ZM14.467 10.52C14.467 10.4059 14.4962 10.1366 14.7299 9.90289C14.9636 9.66921 15.2329 9.64 15.347 9.64V11.64C15.5412 11.64 15.8705 11.5908 16.1441 11.3171C16.4178 11.0434 16.467 10.7141 16.467 10.52H14.467ZM15.347 9.64H11.795V11.64H15.347V9.64Z" fill="white"/>
<path d="M38.3195 13.904L37.3663 14.2066L37.3741 14.2311L37.3831 14.2551L38.3195 13.904ZM37.8395 12.392L38.7926 12.0894L38.7904 12.0826L38.7882 12.0758L37.8395 12.392ZM34.1555 12.392L33.2068 12.0758L33.2045 12.0826L33.2023 12.0894L34.1555 12.392ZM33.6755 13.904L34.6118 14.2551L34.6208 14.2311L34.6286 14.2066L33.6755 13.904ZM32.7875 13.868L31.8363 13.5593L31.829 13.5819L31.8227 13.6049L32.7875 13.868ZM35.4395 5.696L34.5031 5.34487L34.4952 5.36593L34.4883 5.38732L35.4395 5.696ZM36.5435 5.696L37.4942 5.38606L37.4875 5.36531L37.4798 5.34488L36.5435 5.696ZM39.2075 13.868L40.1776 13.6255L40.1691 13.5914L40.1582 13.5581L39.2075 13.868ZM39.2195 13.916H40.2195V13.7929L40.1896 13.6735L39.2195 13.916ZM34.3955 11.6L35.2899 12.0472L35.3247 11.9777L35.3483 11.9036L34.3955 11.6ZM34.3955 11.648L33.501 12.0952L33.6501 12.3934L33.9483 12.5424L34.3955 11.648ZM37.5755 11.648L38.2826 12.3551L38.2826 12.3551L37.5755 11.648ZM37.5875 11.6L36.6347 11.9036L36.6583 11.9777L36.693 12.0472L37.5875 11.6ZM36.0275 6.704L36.9803 6.40041L36.9567 6.32632L36.9219 6.25678L36.0275 6.704ZM35.9555 6.704L35.061 6.25678L35.0263 6.32632L35.0027 6.40041L35.9555 6.704ZM38.4635 13C38.5758 13 38.7513 13.0261 38.9282 13.1439C39.1091 13.2646 39.2081 13.4258 39.2558 13.5529L37.3831 14.2551C37.4548 14.4462 37.5898 14.6554 37.8188 14.8081C38.0436 14.9579 38.2791 15 38.4635 15V13ZM39.2726 13.6014L38.7926 12.0894L36.8863 12.6946L37.3663 14.2066L39.2726 13.6014ZM38.7882 12.0758C38.7369 11.922 38.6306 11.7219 38.4215 11.565C38.2079 11.4048 37.9753 11.356 37.7915 11.356V13.356C37.6316 13.356 37.4191 13.3132 37.2215 13.165C37.0283 13.0201 36.934 12.838 36.8908 12.7082L38.7882 12.0758ZM37.7915 11.356H34.2035V13.356H37.7915V11.356ZM34.2035 11.356C34.0196 11.356 33.7871 11.4048 33.5735 11.565C33.3643 11.7219 33.258 11.922 33.2068 12.0758L35.1042 12.7082C35.0609 12.838 34.9666 13.0201 34.7735 13.165C34.5759 13.3132 34.3633 13.356 34.2035 13.356V11.356ZM33.2023 12.0894L32.7223 13.6014L34.6286 14.2066L35.1086 12.6946L33.2023 12.0894ZM32.7391 13.5529C32.7868 13.4258 32.8858 13.2646 33.0668 13.1439C33.2436 13.0261 33.4191 13 33.5315 13V15C33.7158 15 33.9513 14.9579 34.1762 14.8081C34.4051 14.6554 34.5401 14.4462 34.6118 14.2551L32.7391 13.5529ZM33.5315 13H32.8835V15H33.5315V13ZM32.8835 13C32.96 13 33.3374 13.0147 33.6022 13.3788C33.8563 13.7281 33.7673 14.0759 33.7522 14.1311L31.8227 13.6049C31.7836 13.7481 31.6987 14.1618 31.9847 14.5552C32.2815 14.9633 32.719 15 32.8835 15V13ZM33.7386 14.1767L36.3906 6.00468L34.4883 5.38732L31.8363 13.5593L33.7386 14.1767ZM36.3758 6.04712C36.3281 6.17419 36.2291 6.33542 36.0482 6.45605C35.8713 6.57394 35.6958 6.6 35.5835 6.6V4.6C35.3991 4.6 35.1636 4.64206 34.9388 4.79195C34.7098 4.94458 34.5748 5.15381 34.5031 5.34487L36.3758 6.04712ZM35.5835 6.6H36.3995V4.6H35.5835V6.6ZM36.3995 6.6C36.2871 6.6 36.1116 6.57394 35.9348 6.45605C35.7538 6.33542 35.6548 6.17419 35.6071 6.04712L37.4798 5.34488C37.4082 5.15381 37.2731 4.94458 37.0442 4.79195C36.8193 4.64206 36.5838 4.6 36.3995 4.6V6.6ZM35.5927 6.00594L38.2567 14.1779L40.1582 13.5581L37.4942 5.38606L35.5927 6.00594ZM38.2373 14.1105L38.2493 14.1585L40.1896 13.6735L40.1776 13.6255L38.2373 14.1105ZM38.2195 13.916C38.2195 13.7134 38.2974 13.4083 38.5785 13.1896C38.8119 13.0081 39.0454 13 39.1115 13V15C39.2495 15 39.537 14.9779 39.8064 14.7684C40.1235 14.5217 40.2195 14.1746 40.2195 13.916H38.2195ZM39.1115 13H38.4635V15H39.1115V13ZM33.501 11.1528C33.3523 11.4503 33.3523 11.7977 33.501 12.0952L35.2899 11.2008C35.347 11.3151 35.3895 11.4592 35.3895 11.624C35.3895 11.7888 35.347 11.9329 35.2899 12.0472L33.501 11.1528ZM33.9483 12.5424C34.0865 12.6116 34.2547 12.66 34.4435 12.66V10.66C34.6002 10.66 34.7364 10.7004 34.8427 10.7536L33.9483 12.5424ZM34.4435 12.66H37.5395V10.66H34.4435V12.66ZM37.5395 12.66C37.7096 12.66 38.0209 12.6168 38.2826 12.3551L36.8684 10.9409C37.114 10.6952 37.4013 10.66 37.5395 10.66V12.66ZM38.2826 12.3551C38.373 12.2647 38.5012 12.104 38.5606 11.8665C38.6256 11.6067 38.5829 11.3548 38.4819 11.1528L36.693 12.0472C36.6 11.8612 36.5594 11.6253 36.6203 11.3815C36.6757 11.16 36.794 11.0153 36.8684 10.9409L38.2826 12.3551ZM38.5403 11.2964L36.9803 6.40041L35.0747 7.00759L36.6347 11.9036L38.5403 11.2964ZM36.9219 6.25678C36.8586 6.13015 36.7489 5.9751 36.5672 5.85394C36.3792 5.72862 36.1745 5.68 35.9915 5.68V7.68C35.8245 7.68 35.6338 7.63538 35.4578 7.51806C35.288 7.4049 35.1884 7.26185 35.133 7.15122L36.9219 6.25678ZM35.9915 5.68C35.8085 5.68 35.6038 5.72862 35.4158 5.85395C35.234 5.9751 35.1244 6.13015 35.061 6.25678L36.8499 7.15122C36.7946 7.26185 36.6949 7.4049 36.5252 7.51805C36.3492 7.63538 36.1585 7.68 35.9915 7.68V5.68ZM35.0027 6.40041L33.4427 11.2964L35.3483 11.9036L36.9083 7.00759L35.0027 6.40041Z" fill="white"/>
<path d="M60.964 13.904L60.0109 14.2066L60.0186 14.2311L60.0277 14.2551L60.964 13.904ZM60.484 12.392L61.4371 12.0894L61.435 12.0826L61.4327 12.0758L60.484 12.392ZM56.8 12.392L55.8513 12.0758L55.849 12.0826L55.8469 12.0894L56.8 12.392ZM56.32 13.904L57.2563 14.2551L57.2654 14.2311L57.2731 14.2066L56.32 13.904ZM55.432 13.868L54.4808 13.5593L54.4735 13.5819L54.4672 13.6049L55.432 13.868ZM58.084 5.696L57.1477 5.34487L57.1398 5.36593L57.1328 5.38732L58.084 5.696ZM59.188 5.696L60.1388 5.38606L60.132 5.36531L60.1243 5.34488L59.188 5.696ZM61.852 13.868L62.8221 13.6255L62.8136 13.5914L62.8028 13.5581L61.852 13.868ZM61.864 13.916H62.864V13.7929L62.8341 13.6735L61.864 13.916ZM57.04 11.6L57.9344 12.0472L57.9692 11.9777L57.9928 11.9036L57.04 11.6ZM57.04 11.648L56.1456 12.0952L56.2946 12.3934L56.5928 12.5424L57.04 11.648ZM60.22 11.648L60.9271 12.3551L60.9271 12.3551L60.22 11.648ZM60.232 11.6L59.2792 11.9036L59.3028 11.9777L59.3376 12.0472L60.232 11.6ZM58.672 6.704L59.6248 6.40041L59.6012 6.32632L59.5664 6.25678L58.672 6.704ZM58.6 6.704L57.7056 6.25678L57.6708 6.32632L57.6472 6.40041L58.6 6.704ZM61.108 13C61.2203 13 61.3959 13.0261 61.5727 13.1439C61.7536 13.2646 61.8527 13.4258 61.9003 13.5529L60.0277 14.2551C60.0993 14.4462 60.2344 14.6554 60.4633 14.8081C60.6881 14.9579 60.9237 15 61.108 15V13ZM61.9171 13.6014L61.4371 12.0894L59.5309 12.6946L60.0109 14.2066L61.9171 13.6014ZM61.4327 12.0758C61.3814 11.922 61.2751 11.7219 61.066 11.565C60.8524 11.4048 60.6199 11.356 60.436 11.356V13.356C60.2761 13.356 60.0636 13.3132 59.866 13.165C59.6729 13.0201 59.5786 12.838 59.5353 12.7082L61.4327 12.0758ZM60.436 11.356H56.848V13.356H60.436V11.356ZM56.848 11.356C56.6641 11.356 56.4316 11.4048 56.218 11.565C56.0089 11.7219 55.9026 11.922 55.8513 12.0758L57.7487 12.7082C57.7054 12.838 57.6111 13.0201 57.418 13.165C57.2204 13.3132 57.0079 13.356 56.848 13.356V11.356ZM55.8469 12.0894L55.3669 13.6014L57.2731 14.2066L57.7531 12.6946L55.8469 12.0894ZM55.3837 13.5529C55.4313 13.4258 55.5304 13.2646 55.7113 13.1439C55.8881 13.0261 56.0637 13 56.176 13V15C56.3603 15 56.5959 14.9579 56.8207 14.8081C57.0496 14.6554 57.1847 14.4462 57.2563 14.2551L55.3837 13.5529ZM56.176 13H55.528V15H56.176V13ZM55.528 13C55.6045 13 55.9819 13.0147 56.2467 13.3788C56.5008 13.7281 56.4118 14.0759 56.3968 14.1311L54.4672 13.6049C54.4282 13.7481 54.3432 14.1618 54.6293 14.5552C54.9261 14.9633 55.3635 15 55.528 15V13ZM56.3832 14.1767L59.0352 6.00468L57.1328 5.38732L54.4808 13.5593L56.3832 14.1767ZM59.0203 6.04712C58.9727 6.17419 58.8736 6.33542 58.6927 6.45605C58.5159 6.57394 58.3403 6.6 58.228 6.6V4.6C58.0437 4.6 57.8081 4.64206 57.5833 4.79195C57.3544 4.94458 57.2193 5.15381 57.1477 5.34487L59.0203 6.04712ZM58.228 6.6H59.044V4.6H58.228V6.6ZM59.044 6.6C58.9317 6.6 58.7561 6.57394 58.5793 6.45605C58.3984 6.33542 58.2993 6.17419 58.2517 6.04712L60.1243 5.34488C60.0527 5.15381 59.9176 4.94458 59.6887 4.79195C59.4639 4.64206 59.2283 4.6 59.044 4.6V6.6ZM58.2372 6.00594L60.9012 14.1779L62.8028 13.5581L60.1388 5.38606L58.2372 6.00594ZM60.8819 14.1105L60.8939 14.1585L62.8341 13.6735L62.8221 13.6255L60.8819 14.1105ZM60.864 13.916C60.864 13.7134 60.9419 13.4083 61.2231 13.1896C61.4564 13.0081 61.69 13 61.756 13V15C61.894 15 62.1816 14.9779 62.4509 14.7684C62.7681 14.5217 62.864 14.1746 62.864 13.916H60.864ZM61.756 13H61.108V15H61.756V13ZM56.1456 11.1528C55.9968 11.4503 55.9968 11.7977 56.1456 12.0952L57.9344 11.2008C57.9916 11.3151 58.034 11.4592 58.034 11.624C58.034 11.7888 57.9916 11.9329 57.9344 12.0472L56.1456 11.1528ZM56.5928 12.5424C56.7311 12.6116 56.8992 12.66 57.088 12.66V10.66C57.2448 10.66 57.3809 10.7004 57.4872 10.7536L56.5928 12.5424ZM57.088 12.66H60.184V10.66H57.088V12.66ZM60.184 12.66C60.3541 12.66 60.6654 12.6168 60.9271 12.3551L59.5129 10.9409C59.7586 10.6952 60.0459 10.66 60.184 10.66V12.66ZM60.9271 12.3551C61.0175 12.2647 61.1458 12.104 61.2051 11.8665C61.2701 11.6067 61.2274 11.3548 61.1264 11.1528L59.3376 12.0472C59.2446 11.8612 59.2039 11.6253 59.2649 11.3815C59.3202 11.16 59.4385 11.0153 59.5129 10.9409L60.9271 12.3551ZM61.1848 11.2964L59.6248 6.40041L57.7192 7.00759L59.2792 11.9036L61.1848 11.2964ZM59.5664 6.25678C59.5031 6.13015 59.3934 5.9751 59.2117 5.85394C59.0237 5.72862 58.819 5.68 58.636 5.68V7.68C58.469 7.68 58.2783 7.63538 58.1023 7.51805C57.9326 7.4049 57.8329 7.26185 57.7776 7.15122L59.5664 6.25678ZM58.636 5.68C58.453 5.68 58.2483 5.72862 58.0603 5.85395C57.8786 5.9751 57.7689 6.13015 57.7056 6.25678L59.4944 7.15122C59.4391 7.26185 59.3394 7.4049 59.1697 7.51805C58.9937 7.63538 58.803 7.68 58.636 7.68V5.68ZM57.6472 6.40041L56.0872 11.2964L57.9928 11.9036L59.5528 7.00759L57.6472 6.40041ZM67.7011 10.872C67.5869 10.872 67.3176 10.8428 67.084 10.6091C66.8503 10.3754 66.8211 10.1061 66.8211 9.992H68.8211C68.8211 9.79785 68.7718 9.46857 68.4982 9.19489C68.2245 8.92121 67.8952 8.872 67.7011 8.872V10.872ZM66.8211 9.992V10.496H68.8211V9.992H66.8211ZM66.8211 10.496C66.8211 10.3819 66.8503 10.1126 67.084 9.87889C67.3176 9.64521 67.5869 9.616 67.7011 9.616V11.616C67.8952 11.616 68.2245 11.5668 68.4982 11.2931C68.7718 11.0194 68.8211 10.6901 68.8211 10.496H66.8211ZM67.7011 9.616H65.7091V11.616H67.7011V9.616ZM65.7091 9.616C65.5389 9.616 65.2276 9.65921 64.966 9.92089C64.7043 10.1826 64.6611 10.4939 64.6611 10.664H66.6611C66.6611 10.8021 66.6258 11.0894 66.3802 11.3351C66.1345 11.5808 65.8472 11.616 65.7091 11.616V9.616ZM64.6611 10.664V12.608H66.6611V10.664H64.6611ZM64.6611 12.608C64.6611 12.4939 64.6903 12.2246 64.924 11.9909C65.1576 11.7572 65.4269 11.728 65.5411 11.728V13.728C65.7352 13.728 66.0645 13.6788 66.3382 13.4051C66.6118 13.1314 66.6611 12.8021 66.6611 12.608H64.6611ZM65.5411 11.728H65.0371V13.728H65.5411V11.728ZM65.0371 11.728C65.1512 11.728 65.4205 11.7572 65.6542 11.9909C65.8878 12.2246 65.9171 12.4939 65.9171 12.608H63.9171C63.9171 12.8021 63.9663 13.1314 64.24 13.4051C64.5136 13.6788 64.8429 13.728 65.0371 13.728V11.728ZM65.9171 12.608V10.664H63.9171V12.608H65.9171ZM65.9171 10.664C65.9171 10.4939 65.8738 10.1826 65.6122 9.92089C65.3505 9.65921 65.0392 9.616 64.8691 9.616V11.616C64.7309 11.616 64.4436 11.5808 64.198 11.3351C63.9523 11.0894 63.9171 10.8021 63.9171 10.664H65.9171ZM64.8691 9.616H62.8771V11.616H64.8691V9.616ZM62.8771 9.616C62.9912 9.616 63.2605 9.64521 63.4942 9.87889C63.7278 10.1126 63.7571 10.3819 63.7571 10.496H61.7571C61.7571 10.6901 61.8063 11.0194 62.08 11.2931C62.3536 11.5668 62.6829 11.616 62.8771 11.616V9.616ZM63.7571 10.496V9.992H61.7571V10.496H63.7571ZM63.7571 9.992C63.7571 10.1061 63.7278 10.3754 63.4942 10.6091C63.2605 10.8428 62.9912 10.872 62.8771 10.872V8.872C62.6829 8.872 62.3536 8.92121 62.08 9.19489C61.8063 9.46857 61.7571 9.79785 61.7571 9.992H63.7571ZM62.8771 10.872H64.8691V8.872H62.8771V10.872ZM64.8691 10.872C65.0392 10.872 65.3505 10.8288 65.6122 10.5671C65.8738 10.3054 65.9171 9.99414 65.9171 9.824H63.9171C63.9171 9.68585 63.9523 9.39857 64.198 9.15289C64.4436 8.90721 64.7309 8.872 64.8691 8.872V10.872ZM65.9171 9.824V7.784H63.9171V9.824H65.9171ZM65.9171 7.784C65.9171 7.89815 65.8878 8.16743 65.6542 8.40111C65.4205 8.63479 65.1512 8.664 65.0371 8.664V6.664C64.8429 6.664 64.5136 6.71321 64.24 6.98689C63.9663 7.26057 63.9171 7.58985 63.9171 7.784H65.9171ZM65.0371 8.664H65.5411V6.664H65.0371V8.664ZM65.5411 8.664C65.4269 8.664 65.1576 8.63479 64.924 8.40111C64.6903 8.16743 64.6611 7.89814 64.6611 7.784H66.6611C66.6611 7.58986 66.6118 7.26057 66.3382 6.98689C66.0645 6.71321 65.7352 6.664 65.5411 6.664V8.664ZM64.6611 7.784V9.824H66.6611V7.784H64.6611ZM64.6611 9.824C64.6611 9.99414 64.7043 10.3054 64.966 10.5671C65.2276 10.8288 65.5389 10.872 65.7091 10.872V8.872C65.8472 8.872 66.1345 8.90721 66.3802 9.15289C66.6258 9.39857 66.6611 9.68585 66.6611 9.824H64.6611ZM65.7091 10.872H67.7011V8.872H65.7091V10.872Z" fill="white"/>
<rect x="0.5" y="0.5" width="19" height="19" rx="1.5" stroke="white"/>
<rect x="26.5" y="0.5" width="19" height="19" rx="1.5" stroke="white"/>
<rect x="52.5" y="0.5" width="19" height="19" rx="1.5" stroke="white"/>
<path d="M102 0C96.473 0 92 4.47254 92 10C92 15.527 96.4725 20 102 20C107.527 20 112 15.5275 112 10C112 4.47301 107.527 0 102 0ZM102.586 18.8091V1.1909C107.127 1.48637 110.828 5.25852 110.828 10C110.828 14.7402 107.129 18.5135 102.586 18.8091Z" fill="white"/>
<path d="M135.878 21.3977C135.865 20.7326 136.434 20.1881 137.113 20.1881H139.755V19.9509H134.417C133.738 19.9509 133.169 19.4065 133.182 18.7413C133.194 18.0967 133.732 17.5781 134.393 17.5781H139.755V17.3408H133.236C132.556 17.3408 131.987 16.7964 132 16.1312C132.013 15.4867 132.55 14.968 133.212 14.968H139.755V14.7308H134.447C133.768 14.7308 133.199 14.1864 133.212 13.5212C133.225 12.8767 133.762 12.358 134.423 12.358H141.572L140.254 11.4193C139.713 11.034 139.593 10.292 139.987 9.76206C140.38 9.23217 141.138 9.11504 141.68 9.50037L146.911 13.2257C147.097 13.3577 147.248 13.5309 147.352 13.731C147.456 13.9311 147.51 14.1525 147.51 14.377V20.2375C147.51 20.8982 147.046 21.472 146.389 21.6233L142.976 22.4095C142.54 22.5101 142.093 22.5609 141.644 22.5609H137.089C136.428 22.5609 135.89 22.0422 135.878 21.3977ZM138.984 12.0258H140.529L140.055 11.6879C139.267 11.1269 139.193 9.99015 139.92 9.34034L139.369 8.6469C138.951 8.122 138.163 8.01694 137.635 8.43563C137.123 8.84135 137.035 9.57533 137.442 10.0862L138.984 12.0258ZM150.999 11.9384L150.787 5.60807C150.765 4.9532 150.205 4.43976 149.536 4.46123C148.867 4.48274 148.343 5.03102 148.365 5.68589L148.418 7.28102L144.026 1.75833C143.62 1.24747 142.872 1.15084 142.344 1.53709C141.8 1.93568 141.711 2.70972 142.129 3.23462L145.39 7.33487L145.198 7.48066L141.178 2.42582C140.772 1.91496 140.024 1.81833 139.497 2.20459C138.953 2.60317 138.863 3.37721 139.281 3.90211L143.286 8.93844L143.095 9.08422L139.801 4.94207C139.395 4.43121 138.646 4.33458 138.119 4.72084C137.575 5.11942 137.486 5.89346 137.903 6.41836L140.111 9.19418C140.641 8.85132 141.343 8.85016 141.879 9.23172L147.111 12.957C147.573 13.2863 147.85 13.8171 147.85 14.377V15.0829L150.439 13.1084C150.62 12.9705 150.765 12.7926 150.863 12.5892C150.96 12.3859 151.007 12.1629 150.999 11.9384Z" fill="white"/>
</svg>
