<svg width="182" height="54" viewBox="0 0 182 54" fill="none" xmlns="http://www.w3.org/2000/svg">
<path d="M60.5781 5.52344H57.0938V15H54.75V5.52344H51.3125V3.625H60.5781V5.52344ZM66.0078 8.66406C65.7005 8.6224 65.4297 8.60156 65.1953 8.60156C64.3411 8.60156 63.7812 8.89062 63.5156 9.46875V15H61.2578V6.54688H63.3906L63.4531 7.55469C63.9062 6.77865 64.5339 6.39062 65.3359 6.39062C65.5859 6.39062 65.8203 6.42448 66.0391 6.49219L66.0078 8.66406ZM71.7656 15C71.6615 14.7969 71.5859 14.5443 71.5391 14.2422C70.9922 14.8516 70.2812 15.1562 69.4062 15.1562C68.5781 15.1562 67.8906 14.9167 67.3438 14.4375C66.8021 13.9583 66.5312 13.3542 66.5312 12.625C66.5312 11.7292 66.862 11.0417 67.5234 10.5625C68.1901 10.0833 69.151 9.84115 70.4062 9.83594H71.4453V9.35156C71.4453 8.96094 71.3438 8.64844 71.1406 8.41406C70.9427 8.17969 70.6276 8.0625 70.1953 8.0625C69.8151 8.0625 69.5156 8.15365 69.2969 8.33594C69.0833 8.51823 68.9766 8.76823 68.9766 9.08594H66.7188C66.7188 8.59635 66.8698 8.14323 67.1719 7.72656C67.474 7.3099 67.901 6.98438 68.4531 6.75C69.0052 6.51042 69.625 6.39062 70.3125 6.39062C71.3542 6.39062 72.1797 6.65365 72.7891 7.17969C73.4036 7.70052 73.7109 8.4349 73.7109 9.38281V13.0469C73.7161 13.849 73.8281 14.4557 74.0469 14.8672V15H71.7656ZM69.8984 13.4297C70.2318 13.4297 70.5391 13.3568 70.8203 13.2109C71.1016 13.0599 71.3099 12.8594 71.4453 12.6094V11.1562H70.6016C69.4714 11.1562 68.8698 11.5469 68.7969 12.3281L68.7891 12.4609C68.7891 12.7422 68.888 12.974 69.0859 13.1562C69.2839 13.3385 69.5547 13.4297 69.8984 13.4297ZM77.5234 6.54688L77.5938 7.52344C78.1979 6.76823 79.0078 6.39062 80.0234 6.39062C80.9193 6.39062 81.5859 6.65365 82.0234 7.17969C82.4609 7.70573 82.6849 8.49219 82.6953 9.53906V15H80.4375V9.59375C80.4375 9.11458 80.3333 8.76823 80.125 8.55469C79.9167 8.33594 79.5703 8.22656 79.0859 8.22656C78.4505 8.22656 77.974 8.4974 77.6562 9.03906V15H75.3984V6.54688H77.5234ZM88.9922 12.6641C88.9922 12.388 88.8542 12.1719 88.5781 12.0156C88.3073 11.8542 87.8698 11.7109 87.2656 11.5859C85.2552 11.1641 84.25 10.3099 84.25 9.02344C84.25 8.27344 84.5599 7.64844 85.1797 7.14844C85.8047 6.64323 86.6198 6.39062 87.625 6.39062C88.6979 6.39062 89.5547 6.64323 90.1953 7.14844C90.8411 7.65365 91.1641 8.3099 91.1641 9.11719H88.9062C88.9062 8.79427 88.8021 8.52865 88.5938 8.32031C88.3854 8.10677 88.0599 8 87.6172 8C87.237 8 86.9427 8.08594 86.7344 8.25781C86.526 8.42969 86.4219 8.64844 86.4219 8.91406C86.4219 9.16406 86.5391 9.36719 86.7734 9.52344C87.013 9.67448 87.4141 9.80729 87.9766 9.92188C88.5391 10.0312 89.013 10.1562 89.3984 10.2969C90.5911 10.7344 91.1875 11.4922 91.1875 12.5703C91.1875 13.3411 90.8568 13.9661 90.1953 14.4453C89.5339 14.9193 88.6797 15.1562 87.6328 15.1562C86.9245 15.1562 86.2943 15.0312 85.7422 14.7812C85.1953 14.526 84.7656 14.1797 84.4531 13.7422C84.1406 13.2995 83.9844 12.8229 83.9844 12.3125H86.125C86.1458 12.7135 86.2943 13.0208 86.5703 13.2344C86.8464 13.4479 87.2161 13.5547 87.6797 13.5547C88.112 13.5547 88.4375 13.474 88.6562 13.3125C88.8802 13.1458 88.9922 12.9297 88.9922 12.6641ZM100.258 10.8516C100.258 12.1536 99.9609 13.1979 99.3672 13.9844C98.7786 14.7656 97.9818 15.1562 96.9766 15.1562C96.1224 15.1562 95.4323 14.8594 94.9062 14.2656V18.25H92.6484V6.54688H94.7422L94.8203 7.375C95.3672 6.71875 96.0807 6.39062 96.9609 6.39062C98.0026 6.39062 98.8125 6.77604 99.3906 7.54688C99.9688 8.31771 100.258 9.38021 100.258 10.7344V10.8516ZM98 10.6875C98 9.90104 97.8594 9.29427 97.5781 8.86719C97.3021 8.4401 96.8984 8.22656 96.3672 8.22656C95.6589 8.22656 95.1719 8.4974 94.9062 9.03906V12.5C95.1823 13.0573 95.6745 13.3359 96.3828 13.3359C97.4609 13.3359 98 12.4531 98 10.6875ZM106.562 15C106.458 14.7969 106.383 14.5443 106.336 14.2422C105.789 14.8516 105.078 15.1562 104.203 15.1562C103.375 15.1562 102.688 14.9167 102.141 14.4375C101.599 13.9583 101.328 13.3542 101.328 12.625C101.328 11.7292 101.659 11.0417 102.32 10.5625C102.987 10.0833 103.948 9.84115 105.203 9.83594H106.242V9.35156C106.242 8.96094 106.141 8.64844 105.938 8.41406C105.74 8.17969 105.424 8.0625 104.992 8.0625C104.612 8.0625 104.312 8.15365 104.094 8.33594C103.88 8.51823 103.773 8.76823 103.773 9.08594H101.516C101.516 8.59635 101.667 8.14323 101.969 7.72656C102.271 7.3099 102.698 6.98438 103.25 6.75C103.802 6.51042 104.422 6.39062 105.109 6.39062C106.151 6.39062 106.977 6.65365 107.586 7.17969C108.201 7.70052 108.508 8.4349 108.508 9.38281V13.0469C108.513 13.849 108.625 14.4557 108.844 14.8672V15H106.562ZM104.695 13.4297C105.029 13.4297 105.336 13.3568 105.617 13.2109C105.898 13.0599 106.107 12.8594 106.242 12.6094V11.1562H105.398C104.268 11.1562 103.667 11.5469 103.594 12.3281L103.586 12.4609C103.586 12.7422 103.685 12.974 103.883 13.1562C104.081 13.3385 104.352 13.4297 104.695 13.4297ZM114.992 8.66406C114.685 8.6224 114.414 8.60156 114.18 8.60156C113.326 8.60156 112.766 8.89062 112.5 9.46875V15H110.242V6.54688H112.375L112.438 7.55469C112.891 6.77865 113.518 6.39062 114.32 6.39062C114.57 6.39062 114.805 6.42448 115.023 6.49219L114.992 8.66406ZM119.82 15.1562C118.581 15.1562 117.57 14.776 116.789 14.0156C116.013 13.2552 115.625 12.2422 115.625 10.9766V10.7578C115.625 9.90885 115.789 9.15104 116.117 8.48438C116.445 7.8125 116.909 7.29688 117.508 6.9375C118.112 6.57292 118.799 6.39062 119.57 6.39062C120.727 6.39062 121.635 6.75521 122.297 7.48438C122.964 8.21354 123.297 9.2474 123.297 10.5859V11.5078H117.914C117.987 12.0599 118.206 12.5026 118.57 12.8359C118.94 13.1693 119.406 13.3359 119.969 13.3359C120.839 13.3359 121.518 13.0208 122.008 12.3906L123.117 13.6328C122.779 14.112 122.32 14.487 121.742 14.7578C121.164 15.0234 120.523 15.1562 119.82 15.1562ZM119.562 8.21875C119.115 8.21875 118.75 8.36979 118.469 8.67188C118.193 8.97396 118.016 9.40625 117.938 9.96875H121.078V9.78906C121.068 9.28906 120.932 8.90365 120.672 8.63281C120.411 8.35677 120.042 8.21875 119.562 8.21875ZM122.312 5.1875V5.28125H120.516L119.312 4.14844L118.109 5.28125H116.344V5.15625L118.656 3H119.969L122.312 5.1875ZM126.664 6.54688L126.734 7.52344C127.339 6.76823 128.148 6.39062 129.164 6.39062C130.06 6.39062 130.727 6.65365 131.164 7.17969C131.602 7.70573 131.826 8.49219 131.836 9.53906V15H129.578V9.59375C129.578 9.11458 129.474 8.76823 129.266 8.55469C129.057 8.33594 128.711 8.22656 128.227 8.22656C127.591 8.22656 127.115 8.4974 126.797 9.03906V15H124.539V6.54688H126.664ZM137.07 13.3359C137.487 13.3359 137.826 13.2214 138.086 12.9922C138.346 12.763 138.482 12.4583 138.492 12.0781H140.609C140.604 12.651 140.448 13.1771 140.141 13.6562C139.833 14.1302 139.411 14.5 138.875 14.7656C138.344 15.026 137.755 15.1562 137.109 15.1562C135.901 15.1562 134.948 14.7734 134.25 14.0078C133.552 13.237 133.203 12.1745 133.203 10.8203V10.6719C133.203 9.36979 133.549 8.33073 134.242 7.55469C134.935 6.77865 135.885 6.39062 137.094 6.39062C138.151 6.39062 138.997 6.69271 139.633 7.29688C140.273 7.89583 140.599 8.69531 140.609 9.69531H138.492C138.482 9.25781 138.346 8.90365 138.086 8.63281C137.826 8.35677 137.482 8.21875 137.055 8.21875C136.529 8.21875 136.13 8.41146 135.859 8.79688C135.594 9.17708 135.461 9.79688 135.461 10.6562V10.8906C135.461 11.7604 135.594 12.3854 135.859 12.7656C136.125 13.1458 136.529 13.3359 137.07 13.3359ZM144.281 15H142.016V6.54688H144.281V15ZM141.883 4.35938C141.883 4.02083 141.995 3.74219 142.219 3.52344C142.448 3.30469 142.758 3.19531 143.148 3.19531C143.534 3.19531 143.841 3.30469 144.07 3.52344C144.299 3.74219 144.414 4.02083 144.414 4.35938C144.414 4.70312 144.297 4.98438 144.062 5.20312C143.833 5.42188 143.529 5.53125 143.148 5.53125C142.768 5.53125 142.461 5.42188 142.227 5.20312C141.997 4.98438 141.883 4.70312 141.883 4.35938ZM151.047 15C150.943 14.7969 150.867 14.5443 150.82 14.2422C150.273 14.8516 149.562 15.1562 148.688 15.1562C147.859 15.1562 147.172 14.9167 146.625 14.4375C146.083 13.9583 145.812 13.3542 145.812 12.625C145.812 11.7292 146.143 11.0417 146.805 10.5625C147.471 10.0833 148.432 9.84115 149.688 9.83594H150.727V9.35156C150.727 8.96094 150.625 8.64844 150.422 8.41406C150.224 8.17969 149.909 8.0625 149.477 8.0625C149.096 8.0625 148.797 8.15365 148.578 8.33594C148.365 8.51823 148.258 8.76823 148.258 9.08594H146C146 8.59635 146.151 8.14323 146.453 7.72656C146.755 7.3099 147.182 6.98438 147.734 6.75C148.286 6.51042 148.906 6.39062 149.594 6.39062C150.635 6.39062 151.461 6.65365 152.07 7.17969C152.685 7.70052 152.992 8.4349 152.992 9.38281V13.0469C152.997 13.849 153.109 14.4557 153.328 14.8672V15H151.047ZM149.18 13.4297C149.513 13.4297 149.82 13.3568 150.102 13.2109C150.383 13.0599 150.591 12.8594 150.727 12.6094V11.1562H149.883C148.753 11.1562 148.151 11.5469 148.078 12.3281L148.07 12.4609C148.07 12.7422 148.169 12.974 148.367 13.1562C148.565 13.3385 148.836 13.4297 149.18 13.4297ZM99.6719 29.3516H95.1719V34H92.8281V22.625H100.234V24.5234H95.1719V27.4609H99.6719V29.3516ZM106.078 34C105.974 33.7969 105.898 33.5443 105.852 33.2422C105.305 33.8516 104.594 34.1562 103.719 34.1562C102.891 34.1562 102.203 33.9167 101.656 33.4375C101.115 32.9583 100.844 32.3542 100.844 31.625C100.844 30.7292 101.174 30.0417 101.836 29.5625C102.503 29.0833 103.464 28.8411 104.719 28.8359H105.758V28.3516C105.758 27.9609 105.656 27.6484 105.453 27.4141C105.255 27.1797 104.94 27.0625 104.508 27.0625C104.128 27.0625 103.828 27.1536 103.609 27.3359C103.396 27.5182 103.289 27.7682 103.289 28.0859H101.031C101.031 27.5964 101.182 27.1432 101.484 26.7266C101.786 26.3099 102.214 25.9844 102.766 25.75C103.318 25.5104 103.938 25.3906 104.625 25.3906C105.667 25.3906 106.492 25.6536 107.102 26.1797C107.716 26.7005 108.023 27.4349 108.023 28.3828V32.0469C108.029 32.849 108.141 33.4557 108.359 33.8672V34H106.078ZM104.211 32.4297C104.544 32.4297 104.852 32.3568 105.133 32.2109C105.414 32.0599 105.622 31.8594 105.758 31.6094V30.1562H104.914C103.784 30.1562 103.182 30.5469 103.109 31.3281L103.102 31.4609C103.102 31.7422 103.201 31.974 103.398 32.1562C103.596 32.3385 103.867 32.4297 104.211 32.4297ZM113.273 32.3359C113.69 32.3359 114.029 32.2214 114.289 31.9922C114.549 31.763 114.685 31.4583 114.695 31.0781H116.812C116.807 31.651 116.651 32.1771 116.344 32.6562C116.036 33.1302 115.615 33.5 115.078 33.7656C114.547 34.026 113.958 34.1562 113.312 34.1562C112.104 34.1562 111.151 33.7734 110.453 33.0078C109.755 32.237 109.406 31.1745 109.406 29.8203V29.6719C109.406 28.3698 109.753 27.3307 110.445 26.5547C111.138 25.7786 112.089 25.3906 113.297 25.3906C114.354 25.3906 115.201 25.6927 115.836 26.2969C116.477 26.8958 116.802 27.6953 116.812 28.6953H114.695C114.685 28.2578 114.549 27.9036 114.289 27.6328C114.029 27.3568 113.685 27.2188 113.258 27.2188C112.732 27.2188 112.333 27.4115 112.062 27.7969C111.797 28.1771 111.664 28.7969 111.664 29.6562V29.8906C111.664 30.7604 111.797 31.3854 112.062 31.7656C112.328 32.1458 112.732 32.3359 113.273 32.3359ZM120.484 34H118.219V25.5469H120.484V34ZM118.086 23.3594C118.086 23.0208 118.198 22.7422 118.422 22.5234C118.651 22.3047 118.961 22.1953 119.352 22.1953C119.737 22.1953 120.044 22.3047 120.273 22.5234C120.503 22.7422 120.617 23.0208 120.617 23.3594C120.617 23.7031 120.5 23.9844 120.266 24.2031C120.036 24.4219 119.732 24.5312 119.352 24.5312C118.971 24.5312 118.664 24.4219 118.43 24.2031C118.201 23.9844 118.086 23.7031 118.086 23.3594ZM124.734 34H122.469V22H124.734V34ZM128.984 34H126.719V25.5469H128.984V34ZM126.586 23.3594C126.586 23.0208 126.698 22.7422 126.922 22.5234C127.151 22.3047 127.461 22.1953 127.852 22.1953C128.237 22.1953 128.544 22.3047 128.773 22.5234C129.003 22.7422 129.117 23.0208 129.117 23.3594C129.117 23.7031 129 23.9844 128.766 24.2031C128.536 24.4219 128.232 24.5312 127.852 24.5312C127.471 24.5312 127.164 24.4219 126.93 24.2031C126.701 23.9844 126.586 23.7031 126.586 23.3594ZM133.555 23.4688V25.5469H135V27.2031H133.555V31.4219C133.555 31.7344 133.615 31.9583 133.734 32.0938C133.854 32.2292 134.083 32.2969 134.422 32.2969C134.672 32.2969 134.893 32.2786 135.086 32.2422V33.9531C134.643 34.0885 134.188 34.1562 133.719 34.1562C132.135 34.1562 131.328 33.3568 131.297 31.7578V27.2031H130.062V25.5469H131.297V23.4688H133.555ZM141.156 34C141.052 33.7969 140.977 33.5443 140.93 33.2422C140.383 33.8516 139.672 34.1562 138.797 34.1562C137.969 34.1562 137.281 33.9167 136.734 33.4375C136.193 32.9583 135.922 32.3542 135.922 31.625C135.922 30.7292 136.253 30.0417 136.914 29.5625C137.581 29.0833 138.542 28.8411 139.797 28.8359H140.836V28.3516C140.836 27.9609 140.734 27.6484 140.531 27.4141C140.333 27.1797 140.018 27.0625 139.586 27.0625C139.206 27.0625 138.906 27.1536 138.688 27.3359C138.474 27.5182 138.367 27.7682 138.367 28.0859H136.109C136.109 27.5964 136.26 27.1432 136.562 26.7266C136.865 26.3099 137.292 25.9844 137.844 25.75C138.396 25.5104 139.016 25.3906 139.703 25.3906C140.745 25.3906 141.57 25.6536 142.18 26.1797C142.794 26.7005 143.102 27.4349 143.102 28.3828V32.0469C143.107 32.849 143.219 33.4557 143.438 33.8672V34H141.156ZM139.289 32.4297C139.622 32.4297 139.93 32.3568 140.211 32.2109C140.492 32.0599 140.701 31.8594 140.836 31.6094V30.1562H139.992C138.862 30.1562 138.26 30.5469 138.188 31.3281L138.18 31.4609C138.18 31.7422 138.279 31.974 138.477 32.1562C138.674 32.3385 138.945 32.4297 139.289 32.4297ZM144.484 29.7109C144.484 28.3932 144.779 27.3438 145.367 26.5625C145.961 25.7812 146.771 25.3906 147.797 25.3906C148.62 25.3906 149.299 25.6979 149.836 26.3125V22H152.102V34H150.062L149.953 33.1016C149.391 33.8047 148.667 34.1562 147.781 34.1562C146.786 34.1562 145.987 33.7656 145.383 32.9844C144.784 32.1979 144.484 31.1068 144.484 29.7109ZM146.742 29.875C146.742 30.6667 146.88 31.2734 147.156 31.6953C147.432 32.1172 147.833 32.3281 148.359 32.3281C149.057 32.3281 149.549 32.0339 149.836 31.4453V28.1094C149.555 27.5208 149.068 27.2266 148.375 27.2266C147.286 27.2266 146.742 28.1094 146.742 29.875ZM158.75 34C158.646 33.7969 158.57 33.5443 158.523 33.2422C157.977 33.8516 157.266 34.1562 156.391 34.1562C155.562 34.1562 154.875 33.9167 154.328 33.4375C153.786 32.9583 153.516 32.3542 153.516 31.625C153.516 30.7292 153.846 30.0417 154.508 29.5625C155.174 29.0833 156.135 28.8411 157.391 28.8359H158.43V28.3516C158.43 27.9609 158.328 27.6484 158.125 27.4141C157.927 27.1797 157.612 27.0625 157.18 27.0625C156.799 27.0625 156.5 27.1536 156.281 27.3359C156.068 27.5182 155.961 27.7682 155.961 28.0859H153.703C153.703 27.5964 153.854 27.1432 154.156 26.7266C154.458 26.3099 154.885 25.9844 155.438 25.75C155.99 25.5104 156.609 25.3906 157.297 25.3906C158.339 25.3906 159.164 25.6536 159.773 26.1797C160.388 26.7005 160.695 27.4349 160.695 28.3828V32.0469C160.701 32.849 160.812 33.4557 161.031 33.8672V34H158.75ZM156.883 32.4297C157.216 32.4297 157.523 32.3568 157.805 32.2109C158.086 32.0599 158.294 31.8594 158.43 31.6094V30.1562H157.586C156.456 30.1562 155.854 30.5469 155.781 31.3281L155.773 31.4609C155.773 31.7422 155.872 31.974 156.07 32.1562C156.268 32.3385 156.539 32.4297 156.883 32.4297Z" fill="white"/>
<path d="M58.4375 31.6562H54.3281L53.5469 34H51.0547L55.2891 22.625H57.4609L61.7188 34H59.2266L58.4375 31.6562ZM54.9609 29.7578H57.8047L56.375 25.5L54.9609 29.7578ZM65.1953 23.4688V25.5469H66.6406V27.2031H65.1953V31.4219C65.1953 31.7344 65.2552 31.9583 65.375 32.0938C65.4948 32.2292 65.724 32.2969 66.0625 32.2969C66.3125 32.2969 66.5339 32.2786 66.7266 32.2422V33.9531C66.2839 34.0885 65.8281 34.1562 65.3594 34.1562C63.776 34.1562 62.9688 33.3568 62.9375 31.7578V27.2031H61.7031V25.5469H62.9375V23.4688H65.1953ZM70.2812 34H68.0156V25.5469H70.2812V34ZM67.8828 23.3594C67.8828 23.0208 67.9948 22.7422 68.2188 22.5234C68.4479 22.3047 68.7578 22.1953 69.1484 22.1953C69.5339 22.1953 69.8411 22.3047 70.0703 22.5234C70.2995 22.7422 70.4141 23.0208 70.4141 23.3594C70.4141 23.7031 70.2969 23.9844 70.0625 24.2031C69.8333 24.4219 69.5286 24.5312 69.1484 24.5312C68.7682 24.5312 68.4609 24.4219 68.2266 24.2031C67.9974 23.9844 67.8828 23.7031 67.8828 23.3594ZM75.3125 31.2422L76.8828 25.5469H79.2422L76.3906 34H74.2344L71.3828 25.5469H73.7422L75.3125 31.2422ZM85.0156 34C84.9115 33.7969 84.8359 33.5443 84.7891 33.2422C84.2422 33.8516 83.5312 34.1562 82.6562 34.1562C81.8281 34.1562 81.1406 33.9167 80.5938 33.4375C80.0521 32.9583 79.7812 32.3542 79.7812 31.625C79.7812 30.7292 80.112 30.0417 80.7734 29.5625C81.4401 29.0833 82.401 28.8411 83.6562 28.8359H84.6953V28.3516C84.6953 27.9609 84.5938 27.6484 84.3906 27.4141C84.1927 27.1797 83.8776 27.0625 83.4453 27.0625C83.0651 27.0625 82.7656 27.1536 82.5469 27.3359C82.3333 27.5182 82.2266 27.7682 82.2266 28.0859H79.9688C79.9688 27.5964 80.1198 27.1432 80.4219 26.7266C80.724 26.3099 81.151 25.9844 81.7031 25.75C82.2552 25.5104 82.875 25.3906 83.5625 25.3906C84.6042 25.3906 85.4297 25.6536 86.0391 26.1797C86.6536 26.7005 86.9609 27.4349 86.9609 28.3828V32.0469C86.9661 32.849 87.0781 33.4557 87.2969 33.8672V34H85.0156ZM83.1484 32.4297C83.4818 32.4297 83.7891 32.3568 84.0703 32.2109C84.3516 32.0599 84.5599 31.8594 84.6953 31.6094V30.1562H83.8516C82.7214 30.1562 82.1198 30.5469 82.0469 31.3281L82.0391 31.4609C82.0391 31.7422 82.138 31.974 82.3359 32.1562C82.5339 32.3385 82.8047 32.4297 83.1484 32.4297Z" fill="#F4D279"/>
<path d="M11.7246 11.6895H8.63086V33.6094H3.09375V11.6895H0V8.40234H11.7246V11.6895Z" fill="#083A56"/>
<path d="M44.3086 11.6543H39.4746V18.457H43.7988V21.5156H39.4746V33.6094H33.9375V8.40234H44.3086V11.6543Z" fill="#083A56"/>
<path d="M33.5605 40.6094H25.3217L23.9222 30.4071H20.1989L18.7994 40.6094H10.5605L16.7925 2.60938H27.3286L33.5605 40.6094ZM23.2356 25.1338L22.0473 13.7921L20.9119 25.1338H23.2356Z" fill="#E1A508"/>
<path d="M105.497 49.6304L107.731 43.1797H108.859L105.958 51H105.045L102.15 43.1797H103.273L105.497 49.6304ZM111.931 51.1074C111.143 51.1074 110.502 50.8496 110.008 50.334C109.514 49.8148 109.267 49.1219 109.267 48.2554V48.0728C109.267 47.4963 109.376 46.9824 109.595 46.5312C109.817 46.0765 110.125 45.722 110.519 45.4678C110.916 45.21 111.346 45.0811 111.808 45.0811C112.563 45.0811 113.15 45.3299 113.569 45.8276C113.988 46.3254 114.198 47.0379 114.198 47.9653V48.3789H110.261C110.275 48.9518 110.442 49.4155 110.76 49.77C111.083 50.1209 111.491 50.2964 111.985 50.2964C112.336 50.2964 112.633 50.2248 112.876 50.0815C113.12 49.9383 113.333 49.7485 113.516 49.5122L114.123 49.9849C113.636 50.7332 112.905 51.1074 111.931 51.1074ZM111.808 45.8975C111.407 45.8975 111.07 46.0443 110.798 46.3379C110.526 46.6279 110.357 47.0361 110.293 47.5625H113.204V47.4873C113.175 46.9824 113.039 46.5921 112.796 46.3164C112.552 46.0371 112.223 45.8975 111.808 45.8975ZM118.162 46.0801C118.011 46.055 117.848 46.0425 117.673 46.0425C117.021 46.0425 116.579 46.32 116.346 46.875V51H115.353V45.1885H116.319L116.335 45.8599C116.661 45.3407 117.123 45.0811 117.721 45.0811C117.915 45.0811 118.061 45.1061 118.162 45.1562V46.0801ZM122.464 49.4585C122.464 49.1899 122.362 48.9823 122.158 48.8354C121.957 48.6851 121.604 48.5562 121.1 48.4487C120.598 48.3413 120.199 48.2124 119.902 48.062C119.608 47.9116 119.39 47.7326 119.247 47.5249C119.107 47.3172 119.037 47.0701 119.037 46.7837C119.037 46.3075 119.238 45.9046 119.639 45.5752C120.043 45.2458 120.559 45.0811 121.186 45.0811C121.844 45.0811 122.378 45.2511 122.786 45.5913C123.198 45.9315 123.404 46.3665 123.404 46.8965H122.405C122.405 46.6243 122.288 46.3898 122.056 46.1929C121.826 45.9959 121.536 45.8975 121.186 45.8975C120.824 45.8975 120.541 45.9762 120.337 46.1338C120.133 46.2913 120.031 46.4972 120.031 46.7515C120.031 46.9914 120.126 47.1722 120.315 47.2939C120.505 47.4157 120.847 47.5321 121.341 47.6431C121.839 47.7541 122.242 47.8866 122.55 48.0405C122.858 48.1945 123.085 48.3807 123.232 48.5991C123.382 48.814 123.458 49.0771 123.458 49.3887C123.458 49.9079 123.25 50.325 122.834 50.6401C122.419 50.9517 121.88 51.1074 121.218 51.1074C120.752 51.1074 120.34 51.0251 119.982 50.8604C119.624 50.6956 119.343 50.4665 119.139 50.1729C118.939 49.8757 118.838 49.5552 118.838 49.2114H119.832C119.85 49.5444 119.982 49.8094 120.229 50.0063C120.48 50.1997 120.81 50.2964 121.218 50.2964C121.594 50.2964 121.895 50.2212 122.12 50.0708C122.349 49.9168 122.464 49.7127 122.464 49.4585ZM128.34 51C128.283 50.8854 128.236 50.6813 128.2 50.3877C127.738 50.8675 127.187 51.1074 126.546 51.1074C125.973 51.1074 125.502 50.9463 125.133 50.624C124.768 50.2982 124.585 49.8864 124.585 49.3887C124.585 48.7835 124.815 48.3145 125.273 47.9814C125.735 47.6449 126.383 47.4766 127.217 47.4766H128.184V47.02C128.184 46.6727 128.08 46.397 127.873 46.1929C127.665 45.9852 127.359 45.8813 126.954 45.8813C126.6 45.8813 126.302 45.9709 126.062 46.1499C125.823 46.3289 125.703 46.5456 125.703 46.7998H124.704C124.704 46.5098 124.806 46.2305 125.01 45.9619C125.217 45.6898 125.497 45.4749 125.848 45.3174C126.202 45.1598 126.591 45.0811 127.013 45.0811C127.683 45.0811 128.207 45.2493 128.587 45.5859C128.966 45.9189 129.163 46.3791 129.178 46.9663V49.6411C129.178 50.1746 129.246 50.599 129.382 50.9141V51H128.34ZM126.691 50.2427C127.002 50.2427 127.298 50.1621 127.577 50.001C127.856 49.8398 128.059 49.6304 128.184 49.3726V48.1802H127.405C126.188 48.1802 125.579 48.5365 125.579 49.249C125.579 49.5605 125.683 49.804 125.891 49.9795C126.098 50.1549 126.365 50.2427 126.691 50.2427ZM129.027 42.9219C129.027 43.3086 128.916 43.6219 128.694 43.8618C128.476 44.1017 128.202 44.2217 127.873 44.2217C127.726 44.2217 127.599 44.2038 127.491 44.168C127.384 44.1322 127.242 44.0588 127.067 43.9478C126.895 43.8368 126.77 43.7705 126.691 43.749C126.616 43.724 126.528 43.7114 126.428 43.7114C126.281 43.7114 126.156 43.7687 126.052 43.8833C125.948 43.9943 125.896 44.1375 125.896 44.313L125.23 44.2754C125.23 43.8923 125.337 43.5754 125.552 43.3247C125.771 43.0741 126.046 42.9487 126.379 42.9487C126.505 42.9487 126.618 42.9666 126.718 43.0024C126.818 43.0382 126.954 43.1081 127.126 43.2119C127.298 43.3158 127.429 43.3838 127.518 43.416C127.611 43.4482 127.713 43.4644 127.824 43.4644C127.978 43.4644 128.105 43.4035 128.206 43.2817C128.309 43.16 128.361 43.0186 128.361 42.8574L129.027 42.9219ZM130.472 48.0405C130.472 47.4712 130.583 46.9591 130.805 46.5044C131.031 46.0496 131.342 45.6987 131.74 45.4517C132.141 45.2046 132.597 45.0811 133.109 45.0811C133.901 45.0811 134.54 45.355 135.027 45.9028C135.517 46.4507 135.763 47.1794 135.763 48.0889V48.1587C135.763 48.7244 135.653 49.2329 135.435 49.6841C135.22 50.1317 134.91 50.4808 134.506 50.7314C134.105 50.9821 133.643 51.1074 133.12 51.1074C132.332 51.1074 131.693 50.8335 131.203 50.2856C130.716 49.7378 130.472 49.0127 130.472 48.1104V48.0405ZM131.471 48.1587C131.471 48.8032 131.62 49.3206 131.917 49.7109C132.218 50.1012 132.619 50.2964 133.12 50.2964C133.625 50.2964 134.026 50.0994 134.323 49.7056C134.62 49.3081 134.769 48.7531 134.769 48.0405C134.769 47.4032 134.617 46.8875 134.312 46.4937C134.012 46.0962 133.611 45.8975 133.109 45.8975C132.619 45.8975 132.223 46.0926 131.922 46.4829C131.622 46.8732 131.471 47.4318 131.471 48.1587ZM144.657 48.1587C144.657 49.0467 144.453 49.7611 144.045 50.3018C143.637 50.8389 143.089 51.1074 142.401 51.1074C141.667 51.1074 141.1 50.8478 140.699 50.3286L140.65 51H139.737V42.75H140.731V45.8276C141.132 45.3299 141.685 45.0811 142.391 45.0811C143.096 45.0811 143.649 45.3478 144.05 45.8813C144.455 46.4149 144.657 47.1453 144.657 48.0728V48.1587ZM143.664 48.0459C143.664 47.3691 143.533 46.8464 143.271 46.4775C143.01 46.1087 142.634 45.9243 142.144 45.9243C141.488 45.9243 141.017 46.2287 140.731 46.8374V49.3511C141.035 49.9598 141.51 50.2642 142.154 50.2642C142.631 50.2642 143.001 50.0798 143.266 49.7109C143.531 49.3421 143.664 48.7871 143.664 48.0459ZM148.326 51.1074C147.538 51.1074 146.897 50.8496 146.403 50.334C145.909 49.8148 145.662 49.1219 145.662 48.2554V48.0728C145.662 47.4963 145.771 46.9824 145.989 46.5312C146.211 46.0765 146.519 45.722 146.913 45.4678C147.311 45.21 147.74 45.0811 148.202 45.0811C148.958 45.0811 149.545 45.3299 149.964 45.8276C150.383 46.3254 150.592 47.0379 150.592 47.9653V48.3789H146.655C146.67 48.9518 146.836 49.4155 147.155 49.77C147.477 50.1209 147.885 50.2964 148.379 50.2964C148.73 50.2964 149.028 50.2248 149.271 50.0815C149.514 49.9383 149.728 49.7485 149.91 49.5122L150.517 49.9849C150.03 50.7332 149.3 51.1074 148.326 51.1074ZM148.202 45.8975C147.801 45.8975 147.465 46.0443 147.192 46.3379C146.92 46.6279 146.752 47.0361 146.688 47.5625H149.599V47.4873C149.57 46.9824 149.434 46.5921 149.19 46.3164C148.947 46.0371 148.618 45.8975 148.202 45.8975ZM153.095 43.7812V45.1885H154.18V45.9565H153.095V49.5605C153.095 49.7933 153.144 49.9688 153.24 50.0869C153.337 50.2015 153.502 50.2588 153.734 50.2588C153.849 50.2588 154.007 50.2373 154.207 50.1943V51C153.946 51.0716 153.691 51.1074 153.444 51.1074C153 51.1074 152.666 50.9731 152.44 50.7046C152.214 50.436 152.102 50.0547 152.102 49.5605V45.9565H151.043V45.1885H152.102V43.7812H153.095ZM158.934 51C158.876 50.8854 158.83 50.6813 158.794 50.3877C158.332 50.8675 157.781 51.1074 157.14 51.1074C156.567 51.1074 156.096 50.9463 155.727 50.624C155.362 50.2982 155.179 49.8864 155.179 49.3887C155.179 48.7835 155.408 48.3145 155.867 47.9814C156.329 47.6449 156.977 47.4766 157.811 47.4766H158.778V47.02C158.778 46.6727 158.674 46.397 158.466 46.1929C158.259 45.9852 157.952 45.8813 157.548 45.8813C157.193 45.8813 156.896 45.9709 156.656 46.1499C156.416 46.3289 156.296 46.5456 156.296 46.7998H155.297C155.297 46.5098 155.399 46.2305 155.604 45.9619C155.811 45.6898 156.09 45.4749 156.441 45.3174C156.796 45.1598 157.184 45.0811 157.607 45.0811C158.277 45.0811 158.801 45.2493 159.181 45.5859C159.56 45.9189 159.757 46.3791 159.771 46.9663V49.6411C159.771 50.1746 159.84 50.599 159.976 50.9141V51H158.934ZM157.285 50.2427C157.596 50.2427 157.892 50.1621 158.171 50.001C158.45 49.8398 158.653 49.6304 158.778 49.3726V48.1802H157.999C156.782 48.1802 156.173 48.5365 156.173 49.249C156.173 49.5605 156.277 49.804 156.484 49.9795C156.692 50.1549 156.959 50.2427 157.285 50.2427Z" fill="#EFC047"/>
</svg>
